<svg width="59" height="69" viewBox="0 0 59 69" fill="none" xmlns="http://www.w3.org/2000/svg">
<path fill-rule="evenodd" clip-rule="evenodd" d="M42.6406 1.74221C42.6406 3.42883 42.2355 5.30839 41.4254 7.38088C40.5869 9.45465 39.2871 11.3623 37.5261 13.1039C36.017 14.5963 34.5073 15.5916 32.9969 16.09C31.9633 16.3941 30.5098 16.6292 28.6363 16.7953C28.7203 12.6758 29.8108 9.12371 31.9077 6.13891C33.9763 3.17966 37.4705 1.13336 42.3905 0C42.419 0.08305 42.4539 0.2351 42.4952 0.45615C42.5365 0.6772 42.5714 0.82925 42.5999 0.9123C42.5999 1.02346 42.607 1.16146 42.6212 1.32629C42.6354 1.49112 42.6425 1.62911 42.6425 1.74028L42.6406 1.74221ZM58.4065 50.3801C57.316 53.8351 55.597 57.2907 53.2494 60.747C49.6433 66.1646 46.0515 68.8735 42.4739 68.8735C41.1044 68.8735 39.1476 68.4314 36.6036 67.5472C34.1992 66.663 32.0886 66.2209 30.2721 66.2209C28.5666 66.2209 26.5821 66.677 24.3184 67.5893C22.0548 68.5297 20.2098 68.9999 18.7834 68.9999C14.5352 68.9999 10.3284 65.4203 6.16294 58.2612C2.05431 51.0445 0 44.091 0 37.4008C0 31.0977 1.5795 25.9286 4.73849 21.8935C7.89748 17.9133 11.8666 15.9232 16.6458 15.9232C18.6587 15.9232 21.1323 16.3378 24.0665 17.1671C26.9735 17.9963 28.9025 18.411 29.8535 18.411C31.1119 18.411 33.1106 17.9408 35.8497 17.0003C38.7012 16.0599 41.1192 15.5897 43.1038 15.5897C46.4307 15.5897 49.4075 16.488 52.0342 18.2845C53.4878 19.2798 54.9413 20.6617 56.3948 22.4301C54.1867 24.2828 52.5937 25.9139 51.6156 27.3232C49.799 29.9221 48.8907 32.783 48.8907 35.9058C48.8907 39.334 49.8552 42.4165 51.7842 45.1535C53.7132 47.8904 55.9213 49.6319 58.4084 50.3781L58.4065 50.3801Z" fill="#343434"/>
</svg>
