<svg width="54" height="54" viewBox="0 0 54 54" fill="none" xmlns="http://www.w3.org/2000/svg">
<g id="google">
<path id="Path 582" fill-rule="evenodd" clip-rule="evenodd" d="M10.8914 26.5762C10.8821 34.3495 16.6168 40.9967 24.4664 42.3109C32.316 43.6252 39.9926 39.2234 42.638 31.8914H27.2285V21.261H53.9251V31.8914H53.9124C51.3874 44.0207 40.4016 53.1522 27.2285 53.1522C12.1911 53.1522 1.00005e-05 41.2532 1.00005e-05 26.5762C1.00005e-05 11.8992 12.1911 0.000260005 27.2285 0.000260005C36.2655 -0.00621011 44.7157 4.36829 49.7791 11.6742L40.8536 17.7725C36.8749 11.9027 29.4239 9.27316 22.5191 11.302C15.6143 13.3308 10.8889 19.5381 10.8914 26.5762L10.8914 26.5762Z" fill="#343434"/>
</g>
</svg>
