<svg width="149" height="146" viewBox="0 0 149 146" fill="none" xmlns="http://www.w3.org/2000/svg">
<g id="Group 1095">
<g id="Rectangle 15" filter="url(#filter0_d_734_21511)">
<path fill-rule="evenodd" clip-rule="evenodd" d="M74.4996 137C36.6681 137 5.99964 106.331 5.99964 68.4999C5.99964 30.6684 36.6681 -0.0001 74.4996 -0.0001C112.331 -0.0001 143 30.6684 143 68.4999C143 106.331 112.331 137 74.4996 137Z" fill="#F3F3F3"/>
</g>
<g id="Group 2">
<path id="Path 13" fill-rule="evenodd" clip-rule="evenodd" d="M38.0956 93.0381V50.8603C33.7149 50.8386 30.925 51.1536 30.925 51.1536V100.919C30.925 100.919 55.4764 98.1213 73.6319 109.722C58.5318 95.0697 38.0956 93.0381 38.0956 93.0381V93.0381Z" fill="#FFBA00"/>
<path id="Path 14" fill-rule="evenodd" clip-rule="evenodd" d="M56.7319 87.2896V44.9296C48.6743 41.5538 41.7439 40.4236 41.7439 40.4236V90.1921C41.7439 90.1921 65.0311 93.9804 75.8766 108.492C72.6882 98.9889 56.7319 87.2896 56.7319 87.2896Z" fill="#28A19C"/>
<path id="Path 15" fill-rule="evenodd" clip-rule="evenodd" d="M60.366 35.3282V84.9956C60.366 84.9956 74.4649 95.1002 79.0085 108.465V64.1165C79.0085 41.9074 60.366 35.3282 60.366 35.3282Z" fill="#28A19C" fill-opacity="0.8"/>
<path id="Path 16" fill-rule="evenodd" clip-rule="evenodd" d="M113.234 88.8926V50.43C117.615 50.4082 118.367 50.8342 118.367 50.8342V97.5344C118.367 97.5344 95.9355 93.9417 81.8312 109.723C92.3284 91.6462 113.234 88.8926 113.234 88.8926Z" fill="#28A19C"/>
<path id="Path 17" fill-rule="evenodd" clip-rule="evenodd" d="M109.583 36.5743V86.1986C109.583 86.1986 83.5347 95.1003 78.9918 108.465V64.1169C78.9918 41.9079 109.583 36.5743 109.583 36.5743Z" fill="#FFBA00"/>
<path id="Path 18" fill-rule="evenodd" clip-rule="evenodd" d="M81.8396 26.2901L85.6481 33.2534L92.6113 37.0617L85.6481 40.87L81.8396 47.8333L78.0314 40.87L71.0681 37.0617L78.0314 33.2534L81.8396 26.2901Z" fill="#EDB83E"/>
</g>
</g>
<defs>
<filter id="filter0_d_734_21511" x="0" y="-3" width="149" height="149" filterUnits="userSpaceOnUse" color-interpolation-filters="sRGB">
<feFlood flood-opacity="0" result="BackgroundImageFix"/>
<feColorMatrix in="SourceAlpha" type="matrix" values="0 0 0 0 0 0 0 0 0 0 0 0 0 0 0 0 0 0 127 0" result="hardAlpha"/>
<feOffset dy="3"/>
<feGaussianBlur stdDeviation="3"/>
<feColorMatrix type="matrix" values="0 0 0 0 0 0 0 0 0 0 0 0 0 0 0 0 0 0 0.16 0"/>
<feBlend mode="normal" in2="BackgroundImageFix" result="effect1_dropShadow_734_21511"/>
<feBlend mode="normal" in="SourceGraphic" in2="effect1_dropShadow_734_21511" result="shape"/>
</filter>
</defs>
</svg>
