<svg width="149" height="146" viewBox="0 0 149 146" fill="none" xmlns="http://www.w3.org/2000/svg">
<g id="Group 1094">
<g id="Rectangle 6" filter="url(#filter0_d_734_21522)">
<path fill-rule="evenodd" clip-rule="evenodd" d="M74.4996 137C36.6681 137 5.99959 106.331 5.99959 68.4999C5.99959 30.6684 36.6681 -0.0001 74.4996 -0.0001C112.331 -0.0001 143 30.6684 143 68.4999C143 106.331 112.331 137 74.4996 137Z" fill="#F3F3F3"/>
</g>
<g id="choose icon">
<path id="Path 19" fill-rule="evenodd" clip-rule="evenodd" d="M84.5611 56.9695C84.5611 51.5037 80.1258 47.0745 74.6622 47.0745C69.1948 47.0745 64.7634 51.5037 64.7634 56.9695C64.7634 60.6809 66.8085 63.9088 69.8309 65.6039L70.0365 59.0376C70.0365 56.3511 72.2162 54.1717 74.9056 54.1717H75.1818C77.2999 54.1717 79.0168 55.888 79.0168 58.0062V65.8473C82.294 64.2373 84.5611 60.8697 84.5611 56.9695Z" fill="#FFC607" fill-opacity="0.54"/>
<path id="Path 20" fill-rule="evenodd" clip-rule="evenodd" d="M79.0759 57.6137C79.0759 55.4957 77.3593 53.7797 75.2417 53.7797H74.9655C72.2766 53.7797 70.0974 55.9589 70.0974 58.6451L69.8918 65.2106L69.4359 79.6757C69.3323 80.1218 69.2733 90.1791 69.2733 90.1791C68.4231 89.3123 67.4765 88.3206 66.6264 87.3717C64.6411 85.1574 60.9935 83.6652 58.569 83.389C57.2917 83.2426 56.3167 83.4174 55.6675 83.9059C55.4597 84.0643 55.2565 84.2414 55.0655 84.4324C53.8143 85.6647 52.8699 87.6552 53.7435 89.114C54.1211 89.7511 54.77 90.1741 55.4597 90.6179C56.3734 91.2104 57.9126 91.8523 59.0696 93.3279C61.0071 95.8067 65.4936 101.348 68.2509 104.306C68.8246 104.662 70.0382 105.873 70.6119 106.18C72.352 107.292 73.7733 108.338 74.2663 108.905C74.6515 109.346 76.9295 110.512 76.9295 110.512C78.7713 111.679 82.1236 112.769 85.9955 112.769C89.86 112.769 93.371 113.001 95.9658 110.718H96.1046L96.1731 110.546C98.8129 108.128 100.454 104.778 100.454 101.074V96.1446V83.3652C100.454 82.4969 100.263 79.5879 97.8162 78.7143C96.6407 78.2966 95.5292 78.4548 94.5818 78.8634L94.3604 78.8729L94.2921 78.8774C93.8666 77.2793 92.8044 76.2476 91.2323 75.9736C89.334 75.6452 88.0185 76.2121 87.2278 76.7859C86.442 75.0956 84.8646 74.2147 82.7305 74.394C81.1299 74.5292 79.9396 75.315 79.0759 76.3512V65.454V57.6137Z" fill="#28A19C"/>
<path id="Path 21" fill-rule="evenodd" clip-rule="evenodd" d="M96.7921 73.5738L98.7605 75.7602C99.1393 76.185 99.8251 76.1594 100.159 75.6988C103.953 70.4431 106.045 64.1175 106.045 57.4635C106.045 40.1915 91.9666 26.1426 74.6631 26.1426C73.4757 26.1426 72.2717 26.2088 71.081 26.3413C56.6404 27.9468 45.0274 39.5804 43.4684 54.0043C42.6189 61.8528 44.7005 69.5102 49.1648 75.6988C49.4958 76.1616 50.182 76.185 50.5658 75.7625L52.5315 73.5784C52.811 73.2692 52.8318 72.8109 52.5951 72.4685C49.4442 67.8737 47.7904 62.3864 47.9558 56.6798C48.3558 42.8292 59.5268 31.4745 73.3878 30.8298C88.7136 30.0767 101.38 42.3382 101.38 57.4635C101.38 62.8756 99.7261 68.0796 96.7238 72.464C96.4895 72.8087 96.5107 73.2647 96.7921 73.5738Z" fill="#28A19C"/>
<path id="Path 22" fill-rule="evenodd" clip-rule="evenodd" d="M87.9885 63.7728L90.0754 66.0866C90.5017 66.5634 91.277 66.4547 91.5632 65.886C92.8806 63.2911 93.5746 60.4362 93.5746 57.4614C93.5746 48.5887 87.2543 40.8323 78.5406 39.0142C75.9993 38.478 73.3288 38.478 70.7801 39.0142C62.0715 40.8323 55.7513 48.5887 55.7513 57.4614C55.7513 60.4389 56.4452 63.2911 57.7604 65.886C58.052 66.4547 58.8219 66.5634 59.2505 66.0866L61.3352 63.7728C61.5697 63.5128 61.6241 63.1447 61.4916 62.8239C60.7903 61.1261 60.4209 59.3057 60.4209 57.4614C60.4209 51.5281 64.1847 46.1686 69.7841 44.126C72.9121 42.9879 76.4132 42.9879 79.5384 44.126C85.1385 46.1686 88.9003 51.5281 88.9003 57.4614C88.9003 59.3057 88.531 61.1261 87.8343 62.8239C87.7018 63.147 87.7554 63.5151 87.9885 63.7728Z" fill="#FFBA00"/>
</g>
</g>
<defs>
<filter id="filter0_d_734_21522" x="0" y="-3" width="149" height="149" filterUnits="userSpaceOnUse" color-interpolation-filters="sRGB">
<feFlood flood-opacity="0" result="BackgroundImageFix"/>
<feColorMatrix in="SourceAlpha" type="matrix" values="0 0 0 0 0 0 0 0 0 0 0 0 0 0 0 0 0 0 127 0" result="hardAlpha"/>
<feOffset dy="3"/>
<feGaussianBlur stdDeviation="3"/>
<feColorMatrix type="matrix" values="0 0 0 0 0 0 0 0 0 0 0 0 0 0 0 0 0 0 0.16 0"/>
<feBlend mode="normal" in2="BackgroundImageFix" result="effect1_dropShadow_734_21522"/>
<feBlend mode="normal" in="SourceGraphic" in2="effect1_dropShadow_734_21522" result="shape"/>
</filter>
</defs>
</svg>
