<svg width="150" height="146" viewBox="0 0 150 146" fill="none" xmlns="http://www.w3.org/2000/svg">
<g id="Group 1096">
<g id="Rectangle 16" filter="url(#filter0_d_734_21500)">
<path fill-rule="evenodd" clip-rule="evenodd" d="M75.0003 137C37.1688 137 6.00034 106.331 6.00034 68.4999C6.00034 30.6684 37.1688 -0.0001 75.0003 -0.0001C112.832 -0.0001 144 30.6684 144 68.4999C144 106.331 112.832 137 75.0003 137Z" fill="#F3F3F3"/>
</g>
<g id="certificate icon">
<g id="Group 5">
<g id="Group 4">
<path id="Path 23" fill-rule="evenodd" clip-rule="evenodd" d="M100.641 104.884L90.5794 100.467L85.805 110.364L68.6054 63.7967L83.4415 58.3165L100.641 104.884Z" fill="#28A19C"/>
<path id="Path 24" fill-rule="evenodd" clip-rule="evenodd" d="M49.0791 104.884L59.1408 100.467L63.9152 110.364L81.1148 63.7967L66.2786 58.3165L49.0791 104.884Z" fill="#28A19C"/>
</g>
<path id="Path 25" fill-rule="evenodd" clip-rule="evenodd" d="M78.2466 27.6686C81.0542 25.4084 85.3344 26.5152 86.5946 29.8273C87.4749 32.1408 89.9434 33.516 92.4596 33.0949C96.0621 32.4921 99.1955 35.516 98.5708 38.9923C98.1346 41.4208 99.5597 43.8028 101.957 44.6522C105.389 45.8683 106.536 49.999 104.194 52.7083C102.558 54.6006 102.558 57.3513 104.194 59.2436C106.536 61.9529 105.389 66.0835 101.957 67.2998C99.5597 68.1491 98.1346 70.5312 98.5708 72.9594C99.1955 76.4359 96.0621 79.4597 92.4596 78.8568C89.9434 78.4359 87.4749 79.8111 86.5946 82.1246C85.3344 85.4367 81.0542 86.5435 78.2466 84.2831C76.2855 82.7044 73.4353 82.7044 71.4744 84.2831C68.6669 86.5435 64.3864 85.4367 63.1262 82.1246C62.2459 79.8112 59.7775 78.4359 57.2612 78.8568C53.6589 79.4597 50.5253 76.4359 51.15 72.9594C51.5864 70.5312 50.1613 68.1491 47.764 67.2998H47.7638C44.3318 66.0835 43.185 61.9529 45.527 59.2436C47.1631 57.3513 47.1631 54.6006 45.527 52.7083C43.185 49.999 44.3318 45.8683 47.7638 44.6522H47.764C50.1613 43.8028 51.5864 41.4208 51.15 38.9923C50.5253 35.516 53.6589 32.4921 57.2612 33.0949C59.7775 33.516 62.2459 32.1408 63.1262 29.8273C64.3864 26.5152 68.6669 25.4084 71.4744 27.6686C73.4353 29.2475 76.2855 29.2475 78.2466 27.6686Z" fill="#FFBA00"/>
</g>
<path id="Ellipse 8" fill-rule="evenodd" clip-rule="evenodd" d="M54.4467 56.5919C54.4467 44.9874 63.8518 35.5801 75.4535 35.5801C87.0552 35.5801 96.4603 44.9874 96.4603 56.5919C96.4603 68.1964 87.0552 77.6036 75.4535 77.6036C63.8518 77.6036 54.4467 68.1963 54.4467 56.5919Z" fill="white"/>
</g>
</g>
<defs>
<filter id="filter0_d_734_21500" x="0" y="-3" width="150" height="149" filterUnits="userSpaceOnUse" color-interpolation-filters="sRGB">
<feFlood flood-opacity="0" result="BackgroundImageFix"/>
<feColorMatrix in="SourceAlpha" type="matrix" values="0 0 0 0 0 0 0 0 0 0 0 0 0 0 0 0 0 0 127 0" result="hardAlpha"/>
<feOffset dy="3"/>
<feGaussianBlur stdDeviation="3"/>
<feColorMatrix type="matrix" values="0 0 0 0 0 0 0 0 0 0 0 0 0 0 0 0 0 0 0.16 0"/>
<feBlend mode="normal" in2="BackgroundImageFix" result="effect1_dropShadow_734_21500"/>
<feBlend mode="normal" in="SourceGraphic" in2="effect1_dropShadow_734_21500" result="shape"/>
</filter>
</defs>
</svg>
