<svg width="488" height="417" viewBox="0 0 488 417" fill="none" xmlns="http://www.w3.org/2000/svg">
<path fill-rule="evenodd" clip-rule="evenodd" d="M195.26 186.693C214.261 174.328 231.854 159.444 254.125 153.245C320.261 134.846 372.687 197.955 408.392 242.555C429.888 269.406 456.408 305.29 446.497 341.619C421.752 432.333 274.26 422.507 204.051 406.526C152.936 394.889 81.1081 369.78 60.0657 317.202C47.6404 286.149 64.3743 253.076 88.8959 233.045C114.717 211.949 147.136 211.002 176.061 197.578C182.751 194.472 189.079 190.716 195.26 186.693L195.26 186.693Z" fill="#B5DDD4"/>
<path fill-rule="evenodd" clip-rule="evenodd" d="M296.354 259.526C295.053 257.959 269.999 201.36 269.999 201.36C269.999 201.36 258.294 201.948 250.601 221.445C242.91 240.939 213.859 326.181 213.859 326.181L241.977 342.658L259.438 335.866L296.354 259.526Z" fill="#E8AD0D"/>
<path fill-rule="evenodd" clip-rule="evenodd" d="M420.876 345.275H285.743C285.743 345.275 266.454 306.208 263.573 271.71C261.577 247.94 263.573 204.619 269.515 201.358C272.086 199.94 280.068 197.412 288.292 194.795C288.538 208.741 302.061 230.89 320.373 236.455C336.957 241.49 367.398 214.44 380.724 201.713C393.006 209.718 405.111 217.877 407.484 221.933C411.253 228.429 420.876 345.275 420.876 345.275V345.275Z" fill="#F4B305"/>
<path fill-rule="evenodd" clip-rule="evenodd" d="M381.211 202.632C367.592 216.05 336.478 244.569 319.528 239.26C300.812 233.393 286.99 210.042 286.738 195.338C295.532 192.393 304.596 189.355 307.927 187.437H307.951C308.744 186.995 309.195 186.597 309.242 186.27C309.649 183.395 304.665 158.523 304.665 158.523L345.384 148.75C345.384 148.75 345.521 157.096 347.899 166.494C349.964 174.652 353.701 183.604 360.521 188.512C366.028 192.486 373.643 197.535 381.211 202.632V202.632Z" fill="#FF917B"/>
<path fill-rule="evenodd" clip-rule="evenodd" d="M309.465 184.339C309.864 181.613 304.987 158.02 304.987 158.02L344.826 148.75C344.826 148.75 344.96 156.667 347.287 165.581C317.138 196.786 309.42 184.65 309.465 184.339Z" fill="#F47567"/>
<path fill-rule="evenodd" clip-rule="evenodd" d="M273.403 130.92C271.111 137.107 261.447 139.231 251.821 135.665C242.192 132.097 236.245 124.189 238.538 118.002C240.83 111.814 250.491 109.69 260.121 113.259C269.747 116.825 275.696 124.732 273.403 130.92H273.403Z" fill="#F47567"/>
<path fill-rule="evenodd" clip-rule="evenodd" d="M278.988 62.3817L256.761 66.9538C256.761 66.9538 243.792 98.7684 252.876 120.072C259.594 135.821 278.988 62.3817 278.988 62.3817Z" fill="#29150F"/>
<path fill-rule="evenodd" clip-rule="evenodd" d="M370.385 112.883C369.298 118.493 367.613 123.881 365.419 128.958C352.316 159.509 315.707 179.228 288.502 173.953C256.755 167.789 247.798 129.956 255.449 90.5581C256.712 84.127 258.595 78.0086 261.057 72.332C273.539 43.2442 300.233 25.2186 326.772 30.3844C358.501 36.5481 378.033 73.4849 370.385 112.883Z" fill="#FF917B"/>
<path fill-rule="evenodd" clip-rule="evenodd" d="M353.332 51.9753C353.332 51.9753 362.307 39.8593 372.041 41.3734C381.776 42.8876 390.528 54.4981 390.528 54.4981C390.528 54.4981 375.381 46.7961 367.134 47.8716C367.134 47.8716 381.104 52.6468 383.627 65.9427C383.627 65.9427 370.331 52.8154 353.332 51.9753V51.9753Z" fill="#190B09"/>
<path fill-rule="evenodd" clip-rule="evenodd" d="M369.215 41.3993C360.247 56.1015 344.655 62.9443 334.389 56.682C324.121 50.4196 323.066 33.4275 332.035 18.7252C341.003 4.02565 352.127 -5.44677 366.864 3.44252C382.603 12.939 378.183 26.6997 369.215 41.3993Z" fill="#190B09"/>
<path fill-rule="evenodd" clip-rule="evenodd" d="M374.442 112.989C372.933 118.508 370.739 124.826 368.543 129.904C362.468 134.361 350.852 135.402 350.852 135.402C350.852 134.294 341.54 83.7886 341.296 82.459C341.296 84.1203 297.064 69.4227 261.059 72.3253C260.682 72.0605 260.329 71.7929 259.973 71.5495C257.779 69.8426 256.115 67.9807 254.986 66.0063V65.985C244.122 47.2958 279.906 19.8695 319.59 25.3912C320.301 25.4794 320.986 25.5892 321.698 25.7229C323.116 25.9663 324.533 26.2339 325.954 26.5656C341.96 30.2226 354.022 37.0953 362.446 46.1643C378.187 63.0368 381.403 87.4911 374.442 112.989L374.442 112.989Z" fill="#29150F"/>
<path fill-rule="evenodd" clip-rule="evenodd" d="M362.438 46.1665C335.37 34.4826 277.044 17.5842 254.986 65.9891C244.123 47.2981 279.904 19.8691 319.585 25.3913C320.296 25.4795 320.981 25.5893 321.693 25.723C323.11 25.9665 324.528 26.2341 325.949 26.5658C341.953 30.2232 354.015 37.0965 362.438 46.1665Z" fill="#44331C"/>
<path fill-rule="evenodd" clip-rule="evenodd" d="M312.455 123.266C312.455 126.158 311.396 128.502 310.09 128.502C308.785 128.502 307.726 126.158 307.726 123.266C307.726 120.377 308.785 118.031 310.09 118.031C311.396 118.031 312.455 120.377 312.455 123.266Z" fill="#333333"/>
<path fill-rule="evenodd" clip-rule="evenodd" d="M269.043 119.232C269.043 122.122 267.983 124.468 266.674 124.468C265.368 124.468 264.308 122.122 264.308 119.232C264.308 116.34 265.368 113.997 266.674 113.997C267.983 113.997 269.043 116.34 269.043 119.232Z" fill="#333333"/>
<path d="M281.988 119.93C280.082 124.936 279.669 130.496 280.817 135.724" stroke="#DB4242" stroke-width="0.75" stroke-linecap="round" stroke-linejoin="round"/>
<path d="M309.603 95.325C314.527 94.5438 319.758 95.9562 323.619 99.1123" stroke="#29150F" stroke-linecap="round" stroke-linejoin="round"/>
<path d="M262.554 85.2311C267.294 84.2295 272.462 85.4955 276.202 88.5726" stroke="#29150F" stroke-linecap="round" stroke-linejoin="round"/>
<path d="M289.515 150.041C297.246 151.368 305.493 149.337 311.724 144.572" stroke="#DB4242" stroke-width="0.75" stroke-linecap="round" stroke-linejoin="round"/>
<path fill-rule="evenodd" clip-rule="evenodd" d="M383.373 131.905C384.62 138.385 377.458 145.21 367.373 147.152C357.291 149.092 348.105 145.413 346.858 138.93C345.611 132.45 352.775 125.625 362.858 123.683C372.943 121.743 382.126 125.422 383.373 131.905Z" fill="#FF917B"/>
<path fill-rule="evenodd" clip-rule="evenodd" d="M387.898 214.122C396.009 213.905 403.767 217.471 409.302 223.405C415.327 229.863 425.382 241.923 440.628 263.844C468.851 304.415 478.995 325.142 470.175 336.609C461.355 348.075 358.084 345.276 358.084 345.276L348.769 317.593L400.68 307.114C400.68 307.114 372.984 265.209 369.517 247.943C366.623 233.528 369.194 214.622 387.898 214.122H387.898Z" fill="#FFBA00"/>
<path fill-rule="evenodd" clip-rule="evenodd" d="M358.798 345.001C358.798 345.001 351.058 348.505 335.405 346.729C319.73 344.934 316.028 334.427 316.028 334.427C316.028 334.427 304.965 337.177 301.838 333.186C300.375 331.324 300.773 329.438 301.196 328.398C301.418 327.865 301.662 327.531 301.662 327.531C301.662 327.531 300.907 328.02 299.708 328.176C298.403 328.352 296.584 328.13 294.655 326.49C291.129 323.476 294.299 318.511 294.567 318.088H294.545C294.366 318.155 293.523 318.487 292.437 318.487C290.907 318.487 288.911 317.845 287.538 315.052C285.032 309.954 298.269 302.991 299.334 302.437C298.026 302.814 277.006 309.02 274.855 309.309C272.661 309.577 268.292 309.488 271.064 304.366C273.814 299.267 296.295 287.385 314.498 291.331C332.679 295.3 348.776 317.577 348.776 317.577L358.798 345.001Z" fill="#FF917B"/>
<path fill-rule="evenodd" clip-rule="evenodd" d="M294.55 318.088H294.571C301.044 310.86 308.579 306.314 318.113 302.989C319.001 302.678 318.645 301.416 317.735 301.592C307.804 303.567 298.34 310.196 292.442 318.487L294.55 318.088Z" fill="#F47567"/>
<path fill-rule="evenodd" clip-rule="evenodd" d="M322.554 312.817C313.815 316.562 306.653 321.018 301.2 328.4C301.422 327.868 301.666 327.534 301.666 327.534C301.666 327.534 300.911 328.023 299.713 328.178C304.681 320.197 312.796 313.349 322.043 311.597C322.731 311.463 323.284 312.482 322.554 312.817Z" fill="#F47567"/>
<path fill-rule="evenodd" clip-rule="evenodd" d="M19.646 359.916V342.656H474.967V359.916H19.646Z" fill="#D68149"/>
<path fill-rule="evenodd" clip-rule="evenodd" d="M46.9733 342.656V329.077H318.705V342.656H46.9733Z" fill="#3D313B"/>
<path fill-rule="evenodd" clip-rule="evenodd" d="M232.342 342.656V329.077H318.703V342.656H232.342Z" fill="#4F414D"/>
<path fill-rule="evenodd" clip-rule="evenodd" d="M250.578 338.623V333.101H272.131V338.623H250.578Z" fill="#3D313B"/>
<path fill-rule="evenodd" clip-rule="evenodd" d="M288.079 338.623V333.101H309.621V338.623H288.079Z" fill="#3D313B"/>
<path fill-rule="evenodd" clip-rule="evenodd" d="M246.859 335.869C246.859 337.225 245.694 338.325 244.259 338.325C242.825 338.325 241.662 337.225 241.662 335.869C241.662 334.512 242.825 333.412 244.259 333.412C245.694 333.412 246.859 334.512 246.859 335.869Z" fill="#3D313B"/>
<path fill-rule="evenodd" clip-rule="evenodd" d="M232.345 327.46L224.931 333.165H27.3172L-0.000970012 218.346L7.16538 210.682H209.665L232.345 327.46Z" fill="#5F505E"/>
<path fill-rule="evenodd" clip-rule="evenodd" d="M224.928 333.165H27.3168L-0.000969997 218.34H201.405L224.928 333.165Z" fill="#4F414D"/>
<path fill-rule="evenodd" clip-rule="evenodd" d="M148.279 274.095C148.279 280.473 134.328 285.644 117.121 285.644C99.9118 285.644 85.9607 280.473 85.9607 274.095C85.9607 267.715 99.9118 262.543 117.121 262.543C134.328 262.543 148.279 267.715 148.279 274.095Z" fill="#5F505E"/>
<path fill-rule="evenodd" clip-rule="evenodd" d="M436.047 134.666C434.399 139.526 426.052 141.088 417.403 138.157C408.754 135.225 403.078 128.91 404.726 124.051C406.374 119.193 414.72 117.631 423.369 120.563C432.018 123.494 437.692 129.809 436.047 134.666H436.047Z" fill="#3F3744"/>
<path fill-rule="evenodd" clip-rule="evenodd" d="M461.926 84.7973L454.214 101.503L453.118 103.872L451.023 108.405L449.927 110.774L447.832 115.307L446.736 117.676L444.641 122.208L443.569 124.586L441.474 129.118L440.378 131.488L438.501 135.535L402.293 123.26L403.168 118.873L403.691 116.309L404.664 111.397L405.188 108.833L406.161 103.921L406.684 101.357L407.657 96.4443L408.18 93.8805L409.178 88.9763L409.677 86.4046L413.307 68.3148L461.926 84.7973Z" fill="#5F5260"/>
<path fill-rule="evenodd" clip-rule="evenodd" d="M454.212 101.504L453.116 103.874L409.18 88.974L409.679 86.4016L454.212 101.504Z" fill="#3F3744"/>
<path fill-rule="evenodd" clip-rule="evenodd" d="M408.184 93.8826L451.02 108.408L449.924 110.778L407.661 96.4465L408.184 93.8826Z" fill="#3F3744"/>
<path fill-rule="evenodd" clip-rule="evenodd" d="M447.838 115.301L446.743 117.67L406.168 103.917L406.691 101.354L447.838 115.301Z" fill="#3F3744"/>
<path fill-rule="evenodd" clip-rule="evenodd" d="M444.647 122.211L443.575 124.588L404.665 111.399L405.189 108.835L444.647 122.211Z" fill="#3F3744"/>
<path fill-rule="evenodd" clip-rule="evenodd" d="M441.472 129.112L440.377 131.481L403.173 118.869L403.696 116.306L441.472 129.112Z" fill="#3F3744"/>
<path fill-rule="evenodd" clip-rule="evenodd" d="M485.743 68.6321C479.052 88.3703 460.055 95.9012 440.333 91.9846C439.504 91.8374 438.661 91.6555 437.826 91.4522C436.235 91.0455 434.635 90.5827 433.035 90.0423C430.721 89.2558 428.476 88.3355 426.379 87.3055C425.577 86.9283 424.811 86.5082 424.049 86.091C407.575 76.9923 399.019 60.3894 405.453 41.4137C412.968 19.241 437.034 7.36008 459.207 14.8776C481.38 22.3951 493.26 46.4593 485.743 68.6321Z" fill="#FFBA00"/>
<path fill-rule="evenodd" clip-rule="evenodd" d="M467.763 63.2799C465.462 70.217 455.903 77.3014 445.322 79.9419L440.335 91.9837C439.505 91.8364 438.663 91.6545 437.828 91.4512L443.5 77.7802L444.136 77.6251C453.985 75.3483 463.319 68.6921 465.366 62.4933C466.241 59.8367 465.759 57.4102 463.953 55.2806C462.669 53.8092 461.12 53.044 459.159 52.9371C452.013 52.5919 442.793 61.2546 442.713 61.3349L440.832 63.1194L440.589 60.535C440.575 60.4226 439.438 48.7822 433.94 45.4541C432.129 44.3599 430.064 44.3278 427.589 45.3498C425.489 46.2085 424.148 47.6426 423.461 49.6732C420.847 57.6215 429.2 71.6028 429.288 71.7393L429.539 72.17L426.38 87.3044C425.577 86.9273 424.812 86.5071 424.049 86.0899L426.869 72.5954C425.39 70.0459 418.34 57.1695 421.066 48.8866C421.973 46.1337 423.841 44.1592 426.621 43.0249C429.839 41.6952 432.739 41.7729 435.251 43.3166C440.161 46.2594 442.09 53.9911 442.772 57.9479C446.028 55.2458 453.07 50.1011 459.29 50.4275C461.928 50.5774 464.148 51.6475 465.858 53.6647C468.242 56.4443 468.895 59.7778 467.763 63.2799L467.763 63.2799Z" fill="#FFE19F"/>
<path fill-rule="evenodd" clip-rule="evenodd" d="M417.197 30.0971C419.201 26.9836 421.949 24.4238 425.097 22.4739C431.428 18.5527 443.959 12.6842 458.906 18.5687C475.716 25.1835 454.283 19.2775 438.145 23.4448C423.631 27.1895 410.805 40.0312 417.197 30.0971Z" fill="#FCD772"/>
</svg>
