<svg width="99" height="39" viewBox="0 0 99 39" fill="none" xmlns="http://www.w3.org/2000/svg">
<path id="ibm" fill-rule="evenodd" clip-rule="evenodd" d="M80.3661 7.85913H98.858V5.16066H81.3025L80.3661 7.85913ZM60.4077 13.009H75.2447L74.2918 10.3079H60.4077L60.4077 13.009ZM71.3727 23.3196H82.4064L83.351 20.6211H70.4253L71.3727 23.3196ZM73.2181 28.4695H80.5583L81.5249 25.7684H72.2432L73.2181 28.4695ZM75.0662 33.6168H78.7074L79.6878 30.9183H74.0996L75.0662 33.6168ZM76.8868 38.7506L77.8342 36.0789H75.9339L76.8868 38.7506ZM83.1368 0.00537L82.184 2.70116H98.858V0.00537H83.1368ZM93.3631 10.3025H79.4818L78.5344 13.0037H93.3631V10.3025ZM85.1195 18.1643H93.3576V15.4632H77.6612L76.8868 17.6461L76.1124 15.4632H60.405V18.1643H68.6431V15.6833L69.5219 18.1643H84.249L85.1222 15.6833L85.1195 18.1643ZM85.1195 20.6158H93.3576V23.3142H85.1195V20.6158ZM85.1195 25.763H93.3576V28.4642H85.1195V25.763ZM85.1195 30.9129H98.858V33.6114H85.1222L85.1195 30.9129ZM85.1195 36.0763H98.858V38.7667H85.1222L85.1195 36.0763ZM70.6505 0H54.9238V2.69578H71.5979L70.6505 0ZM72.4711 5.14992H54.9238V7.84839H73.4185L72.4711 5.14992ZM60.4077 20.6104H68.6459V23.3089H60.4077V20.6104ZM60.4077 25.7576H68.6459V28.4588H60.4077V25.7576ZM54.9266 30.9075H68.6514V33.606H54.9266V30.9075ZM54.9266 36.0709H68.6514V38.7613H54.9266V36.0709ZM21.9657 38.7425L42.4375 38.772C45.1863 38.772 47.6605 37.7356 49.5086 36.0736H21.963V38.7452L21.9657 38.7425ZM43.9396 25.7576V28.4588H52.9275C52.9275 27.5324 52.8011 26.6195 52.5567 25.7576H43.9396ZM27.4578 25.7576H35.6905V28.4588H27.4523L27.4578 25.7576ZM43.9396 12.9983H52.5568C52.7984 12.1364 52.9275 11.2262 52.9275 10.2971H43.9396L43.9396 12.9983ZM27.4578 10.2971H35.696V12.9983H27.4578V10.2971ZM42.4375 0.00268H21.963V2.70115H49.4977C47.5759 0.96425 45.0545 0.00054 42.4375 0.00268ZM51.5242 5.1526H21.9629V7.85107H52.6227C52.374 6.91041 52.0059 6.00387 51.527 5.1526H51.5242ZM27.4578 15.4605V18.1616H49.2285C50.1485 17.4045 50.9174 16.4942 51.5325 15.4605H27.4578ZM49.223 20.6158H27.4606V23.3142H51.527C50.9172 22.2977 50.1407 21.386 49.2285 20.6158H49.223ZM21.9629 33.6114H51.5242C52.0185 32.7817 52.3975 31.8688 52.6254 30.9129H21.9684V33.6114H21.9629ZM0 0H19.2224V2.69847H0V0ZM0 5.14991H19.2224V7.84838H0V5.14991ZM5.47838 10.2998H13.7303V13.001H5.47838V10.2998ZM5.47838 15.4578H13.7303V18.159H5.47838V15.4578ZM5.47838 20.6131H13.7303V23.3116H5.47838V20.6131ZM5.47838 25.7603H13.7303V28.4615H5.47838V25.7603ZM0 30.9102H19.2224V33.6087H0V30.9102ZM0 36.0736H19.2224V38.764H0V36.0736Z" fill="#343434"/>
</svg>
