<svg width="25" height="25" viewBox="0 0 25 25" fill="none" xmlns="http://www.w3.org/2000/svg">
<g id="Icon ionic-ios-checkmark-circle-outline" opacity="0.75">
<path id="Path 580" fill-rule="evenodd" clip-rule="evenodd" d="M18.881 8.06639L17.8274 6.79433C17.7855 6.7381 17.7196 6.70999 17.6597 6.70999C17.5939 6.70999 17.534 6.73809 17.4921 6.79433L10.1882 15.4317L7.53004 12.3113C7.48215 12.255 7.42228 12.2269 7.36241 12.2269C7.30254 12.2269 7.24267 12.255 7.19478 12.3113L6.12913 13.5622C6.03334 13.6747 6.03334 13.8504 6.12913 13.9628L9.48174 17.8985C9.69727 18.1515 9.96069 18.2991 10.1822 18.2991C10.4995 18.2991 10.7749 18.025 10.8767 17.9125C10.8767 17.9125 10.8767 17.9125 10.8827 17.9125L18.887 8.46698C18.9709 8.3475 18.9709 8.17181 18.881 8.06639H18.881Z" fill="#343434"/>
<path id="Path 581" fill-rule="evenodd" clip-rule="evenodd" d="M12.5 0C5.59495 0 0 5.59495 0 12.5C0 19.4051 5.59495 25 12.5 25C19.4051 25 25 19.4051 25 12.5C25 5.59495 19.4051 0 12.5 0ZM12.5 1.68269C15.3906 1.68269 18.107 2.80649 20.1502 4.84976C22.1935 6.89303 23.3173 9.60938 23.3173 12.5C23.3173 15.3906 22.1935 18.107 20.1502 20.1502C18.107 22.1935 15.3906 23.3173 12.5 23.3173C9.60938 23.3173 6.89303 22.1935 4.84976 20.1502C2.80649 18.107 1.68269 15.3906 1.68269 12.5C1.68269 9.60938 2.80649 6.89303 4.84976 4.84976C6.89303 2.80649 9.60938 1.68269 12.5 1.68269Z" fill="#343434"/>
</g>
</svg>
