<svg width="86" height="56" viewBox="0 0 86 56" fill="none" xmlns="http://www.w3.org/2000/svg">
<path fill-rule="evenodd" clip-rule="evenodd" d="M74.5219 16.4839C73.5465 16.4852 72.7547 15.7063 72.7534 14.7442C72.7521 13.7822 73.5418 13.0012 74.5172 12.9999H74.5219C75.4538 13.0583 76.1793 13.8209 76.1793 14.7419C76.1793 15.6629 75.4538 16.4254 74.5219 16.4839H74.5219ZM74.5219 13.2908C73.716 13.2941 73.0653 13.9411 73.0686 14.736C73.0719 15.531 73.7279 16.1728 74.5338 16.1695C75.3343 16.167 75.9841 15.5303 75.9919 14.7407C75.9867 13.9421 75.3316 13.2959 74.5219 13.2908L74.5219 13.2908ZM75.2998 15.7848H74.9739C74.943 15.7848 74.9097 15.7707 74.8978 15.7425L74.4506 14.9918C74.4387 14.9753 74.4054 14.9566 74.384 14.9566H74.1842V15.7026C74.1842 15.7449 74.1533 15.7918 74.1009 15.7918H73.8084C73.7679 15.7918 73.7322 15.7425 73.7322 15.7026V13.8257C73.7322 13.7225 73.7751 13.6662 73.8678 13.6568C74.0462 13.6404 74.2294 13.6357 74.4101 13.6357C74.9525 13.6357 75.2879 13.7976 75.2879 14.2973V14.3325C75.2879 14.6492 75.1237 14.8088 74.8811 14.8885L75.3449 15.6604C75.3449 15.6815 75.3616 15.7026 75.3616 15.7238C75.3687 15.7496 75.3473 15.7848 75.295 15.7848V15.7918V15.7848L75.2998 15.7848ZM74.8716 14.2973C74.8716 14.0862 74.7408 14.0205 74.4577 14.0205H74.1842V14.6187L74.4577 14.6258C74.7384 14.6258 74.8716 14.5366 74.8716 14.3302V14.2973ZM40.6694 49.6466C23.7502 51.188 6.11034 48.7621 3.64371 35.7222C2.44013 29.2938 5.41816 22.4736 9.34527 18.2435V15.9795C2.25697 22.1099 -1.58926 29.878 0.625245 39.0514C3.45104 50.8243 18.591 57.4873 41.6898 55.2703C50.8356 54.3951 62.7977 51.4906 71.1134 46.986V40.5952C63.5636 45.0317 51.0735 48.6964 40.6694 49.6442V49.6466ZM85.2543 15.827C81.2392 -3.50754 43.1812 -4.73222 18.6623 9.99214V11.618C43.155 -0.797748 77.9043 -0.727357 81.0679 17.0728C82.124 22.9686 78.763 29.1014 72.757 32.6347V37.2472C79.9809 34.636 87.4046 26.1735 85.2519 15.8223L85.2543 15.827ZM69.7433 37.076C66.4299 36.7592 65.3072 34.7814 65.3072 32.4916V13.0093H69.7433V37.0807V37.0736V37.076ZM16.9212 37.442C13.603 37.1323 12.4755 35.1498 12.4755 32.8482V20.1251H16.914V37.4537L16.9212 37.4396L16.9212 37.442ZM16.9093 17.7508H12.4779V13.5982H16.9093V17.7508V17.7508ZM43.488 37.2402C39.9058 37.2402 38.3788 34.7814 38.3788 32.3438V15.4516H42.7745V20.1204H46.0855V23.6255H42.7721V32.0716C42.7721 33.0711 43.2549 33.6201 44.3015 33.6201H46.0855V37.2331H43.488V37.2402ZM51.5801 30.0352C51.5801 32.2499 52.9835 33.8899 55.4834 33.8899C57.4244 33.8899 58.3901 33.362 59.5176 32.25L62.2363 34.8143C60.4999 36.5082 58.666 37.5335 55.4501 37.5335C51.24 37.5335 47.2082 35.2694 47.2082 28.6651C47.2082 23.0179 50.7238 19.8248 55.3455 19.8248C60.0361 19.8248 62.7501 23.5669 62.7501 28.4656V30.0235H51.5801V30.0352L51.5801 30.0352ZM55.1576 23.4191C53.6519 23.4191 52.4888 24.1792 51.9988 25.2139C51.7248 25.7988 51.5812 26.4348 51.5778 27.0791H58.3497C58.2664 25.2139 57.4101 23.4191 55.1552 23.4191H55.1576ZM25.2273 23.6232V37.2683H20.8269V20.1181L29.9156 20.1251C33.769 20.1251 35.0867 22.8138 35.0867 25.2491V37.2683H30.6982V25.2749C30.6982 24.252 30.1678 23.6232 28.8666 23.6232H25.2273Z" fill="#343434"/>
</svg>
