<svg width="337" height="71" viewBox="0 0 337 71" fill="none" xmlns="http://www.w3.org/2000/svg">
<path d="M10.416 1.6C12.464 1.6 13.9893 2.08 14.992 3.04C15.9947 4 16.496 5.41867 16.496 7.296C16.496 8.29867 16.2507 9.184 15.76 9.952C15.2693 10.6987 14.544 11.2853 13.584 11.712C12.624 12.1173 11.44 12.32 10.032 12.32L10.16 10.88C10.8213 10.88 11.5787 10.976 12.432 11.168C13.2853 11.3387 14.1067 11.6587 14.896 12.128C15.7067 12.576 16.368 13.216 16.88 14.048C17.4133 14.8587 17.68 15.904 17.68 17.184C17.68 18.592 17.4453 19.744 16.976 20.64C16.528 21.536 15.9307 22.2293 15.184 22.72C14.4373 23.2107 13.6373 23.552 12.784 23.744C11.9307 23.9147 11.1093 24 10.32 24H2.352C1.79733 24 1.328 23.8187 0.944 23.456C0.581333 23.072 0.4 22.6027 0.4 22.048V3.552C0.4 2.99733 0.581333 2.53867 0.944 2.176C1.328 1.792 1.79733 1.6 2.352 1.6H10.416ZM9.84 5.376H4.144L4.56 4.864V10.656L4.176 10.368H9.936C10.5547 10.368 11.1093 10.1653 11.6 9.76C12.0907 9.35467 12.336 8.768 12.336 8C12.336 7.08267 12.1013 6.42133 11.632 6.016C11.184 5.58933 10.5867 5.376 9.84 5.376ZM10.096 14.144H4.272L4.56 13.888V20.64L4.24 20.32H10.32C11.3013 20.32 12.08 20.064 12.656 19.552C13.232 19.0187 13.52 18.2293 13.52 17.184C13.52 16.224 13.328 15.5307 12.944 15.104C12.56 14.6773 12.1013 14.4107 11.568 14.304C11.0347 14.1973 10.544 14.144 10.096 14.144ZM30.1482 24.32C28.3348 24.32 26.7562 23.9467 25.4122 23.2C24.0895 22.432 23.0655 21.3973 22.3402 20.096C21.6362 18.7947 21.2842 17.3227 21.2842 15.68C21.2842 13.76 21.6682 12.128 22.4362 10.784C23.2255 9.41867 24.2495 8.37333 25.5082 7.648C26.7668 6.92267 28.1002 6.56 29.5082 6.56C30.5962 6.56 31.6202 6.784 32.5802 7.232C33.5615 7.68 34.4255 8.29867 35.1722 9.088C35.9188 9.856 36.5055 10.752 36.9322 11.776C37.3802 12.8 37.6042 13.888 37.6042 15.04C37.5828 15.552 37.3802 15.968 36.9962 16.288C36.6122 16.608 36.1642 16.768 35.6522 16.768H23.4282L22.4682 13.568H34.2122L33.5082 14.208V13.344C33.4655 12.7253 33.2415 12.1707 32.8362 11.68C32.4522 11.1893 31.9615 10.8053 31.3642 10.528C30.7882 10.2293 30.1695 10.08 29.5082 10.08C28.8682 10.08 28.2708 10.1653 27.7162 10.336C27.1615 10.5067 26.6815 10.7947 26.2762 11.2C25.8708 11.6053 25.5508 12.1493 25.3162 12.832C25.0815 13.5147 24.9642 14.3787 24.9642 15.424C24.9642 16.576 25.1988 17.5573 25.6682 18.368C26.1588 19.1573 26.7775 19.7653 27.5242 20.192C28.2922 20.5973 29.1028 20.8 29.9562 20.8C30.7455 20.8 31.3748 20.736 31.8442 20.608C32.3135 20.48 32.6868 20.3307 32.9642 20.16C33.2628 19.968 33.5295 19.808 33.7642 19.68C34.1482 19.488 34.5108 19.392 34.8522 19.392C35.3215 19.392 35.7055 19.552 36.0042 19.872C36.3242 20.192 36.4842 20.5653 36.4842 20.992C36.4842 21.568 36.1855 22.0907 35.5882 22.56C35.0335 23.0293 34.2548 23.4453 33.2522 23.808C32.2495 24.1493 31.2148 24.32 30.1482 24.32ZM51.1778 6.56C52.7565 6.56 53.9512 6.89067 54.7618 7.552C55.5938 8.21333 56.1592 9.09867 56.4578 10.208C56.7778 11.296 56.9378 12.512 56.9378 13.856V22.048C56.9378 22.6027 56.7565 23.072 56.3938 23.456C56.0312 23.8187 55.5725 24 55.0178 24C54.4632 24 54.0045 23.8187 53.6418 23.456C53.2792 23.072 53.0978 22.6027 53.0978 22.048V13.856C53.0978 13.152 53.0018 12.5227 52.8098 11.968C52.6392 11.392 52.3192 10.9333 51.8498 10.592C51.3805 10.2507 50.7085 10.08 49.8338 10.08C48.9805 10.08 48.2552 10.2507 47.6578 10.592C47.0818 10.9333 46.6338 11.392 46.3138 11.968C46.0152 12.5227 45.8658 13.152 45.8658 13.856V22.048C45.8658 22.6027 45.6845 23.072 45.3218 23.456C44.9592 23.8187 44.5005 24 43.9458 24C43.3912 24 42.9325 23.8187 42.5698 23.456C42.2072 23.072 42.0258 22.6027 42.0258 22.048V8.832C42.0258 8.27733 42.2072 7.81867 42.5698 7.456C42.9325 7.072 43.3912 6.88 43.9458 6.88C44.5005 6.88 44.9592 7.072 45.3218 7.456C45.6845 7.81867 45.8658 8.27733 45.8658 8.832V10.208L45.3858 10.112C45.5778 9.74933 45.8552 9.36533 46.2178 8.96C46.5805 8.53333 47.0072 8.13867 47.4978 7.776C47.9885 7.41333 48.5432 7.12533 49.1618 6.912C49.7805 6.67733 50.4525 6.56 51.1778 6.56ZM70.219 24.32C68.4057 24.32 66.827 23.9467 65.483 23.2C64.1603 22.432 63.1363 21.3973 62.411 20.096C61.707 18.7947 61.355 17.3227 61.355 15.68C61.355 13.76 61.739 12.128 62.507 10.784C63.2963 9.41867 64.3203 8.37333 65.579 7.648C66.8377 6.92267 68.171 6.56 69.579 6.56C70.667 6.56 71.691 6.784 72.651 7.232C73.6323 7.68 74.4963 8.29867 75.243 9.088C75.9897 9.856 76.5763 10.752 77.003 11.776C77.451 12.8 77.675 13.888 77.675 15.04C77.6537 15.552 77.451 15.968 77.067 16.288C76.683 16.608 76.235 16.768 75.723 16.768H63.499L62.539 13.568H74.283L73.579 14.208V13.344C73.5363 12.7253 73.3123 12.1707 72.907 11.68C72.523 11.1893 72.0323 10.8053 71.435 10.528C70.859 10.2293 70.2403 10.08 69.579 10.08C68.939 10.08 68.3417 10.1653 67.787 10.336C67.2323 10.5067 66.7523 10.7947 66.347 11.2C65.9417 11.6053 65.6217 12.1493 65.387 12.832C65.1523 13.5147 65.035 14.3787 65.035 15.424C65.035 16.576 65.2697 17.5573 65.739 18.368C66.2297 19.1573 66.8483 19.7653 67.595 20.192C68.363 20.5973 69.1737 20.8 70.027 20.8C70.8163 20.8 71.4457 20.736 71.915 20.608C72.3843 20.48 72.7577 20.3307 73.035 20.16C73.3337 19.968 73.6003 19.808 73.835 19.68C74.219 19.488 74.5817 19.392 74.923 19.392C75.3923 19.392 75.7763 19.552 76.075 19.872C76.395 20.192 76.555 20.5653 76.555 20.992C76.555 21.568 76.2563 22.0907 75.659 22.56C75.1043 23.0293 74.3257 23.4453 73.323 23.808C72.3203 24.1493 71.2857 24.32 70.219 24.32ZM90.8967 0.32C91.366 0.32 91.8247 0.384 92.2727 0.511999C92.7207 0.639999 93.094 0.853332 93.3927 1.152C93.6913 1.42933 93.8407 1.80267 93.8407 2.272C93.8407 2.80533 93.6807 3.232 93.3607 3.552C93.062 3.85067 92.71 4 92.3047 4C92.1127 4 91.8247 3.95733 91.4407 3.872C91.0567 3.76533 90.6833 3.712 90.3207 3.712C89.7873 3.712 89.3713 3.82933 89.0727 4.064C88.7953 4.29867 88.6033 4.576 88.4967 4.896C88.39 5.19467 88.3367 5.46133 88.3367 5.696V22.048C88.3367 22.6027 88.1553 23.072 87.7927 23.456C87.43 23.8187 86.9713 24 86.4167 24C85.862 24 85.4033 23.8187 85.0407 23.456C84.678 23.072 84.4967 22.6027 84.4967 22.048V5.728C84.4967 4.21333 85.03 2.93333 86.0967 1.888C87.1633 0.842666 88.7633 0.32 90.8967 0.32ZM91.2487 7.2C91.7607 7.2 92.1873 7.37067 92.5287 7.712C92.87 8.032 93.0407 8.448 93.0407 8.96C93.0407 9.472 92.87 9.89867 92.5287 10.24C92.1873 10.56 91.7607 10.72 91.2487 10.72H82.7687C82.2567 10.72 81.83 10.56 81.4887 10.24C81.1473 9.89867 80.9767 9.472 80.9767 8.96C80.9767 8.448 81.1473 8.032 81.4887 7.712C81.83 7.37067 82.2567 7.2 82.7687 7.2H91.2487ZM99.6967 22.048C99.6967 22.6027 99.5153 23.072 99.1527 23.456C98.79 23.8187 98.3313 24 97.7767 24C97.222 24 96.7633 23.8187 96.4007 23.456C96.038 23.072 95.8567 22.6027 95.8567 22.048V8.832C95.8567 8.27733 96.038 7.81867 96.4007 7.456C96.7633 7.072 97.222 6.88 97.7767 6.88C98.3313 6.88 98.79 7.072 99.1527 7.456C99.5153 7.81867 99.6967 8.27733 99.6967 8.832V22.048ZM97.7447 4.8C97.0193 4.8 96.5073 4.68267 96.2087 4.448C95.91 4.21333 95.7607 3.79733 95.7607 3.2V2.592C95.7607 1.97333 95.9207 1.55733 96.2407 1.344C96.582 1.10933 97.094 0.991999 97.7767 0.991999C98.5233 0.991999 99.046 1.10933 99.3447 1.344C99.6433 1.57867 99.7927 1.99467 99.7927 2.592V3.2C99.7927 3.81867 99.6327 4.24533 99.3127 4.48C98.9927 4.69333 98.47 4.8 97.7447 4.8ZM104.887 7.2H112.471C112.983 7.2 113.409 7.37067 113.751 7.712C114.092 8.05333 114.263 8.48 114.263 8.992C114.263 9.48267 114.092 9.89867 113.751 10.24C113.409 10.56 112.983 10.72 112.471 10.72H104.887C104.375 10.72 103.948 10.5493 103.607 10.208C103.265 9.86667 103.095 9.44 103.095 8.928C103.095 8.43733 103.265 8.032 103.607 7.712C103.948 7.37067 104.375 7.2 104.887 7.2ZM108.311 3.2C108.865 3.2 109.313 3.392 109.655 3.776C110.017 4.13867 110.199 4.59733 110.199 5.152V19.392C110.199 19.6907 110.252 19.936 110.359 20.128C110.487 20.32 110.647 20.4587 110.839 20.544C111.052 20.6293 111.276 20.672 111.511 20.672C111.767 20.672 112.001 20.6293 112.215 20.544C112.428 20.4373 112.673 20.384 112.951 20.384C113.249 20.384 113.516 20.5227 113.751 20.8C114.007 21.0773 114.135 21.4613 114.135 21.952C114.135 22.5493 113.804 23.04 113.143 23.424C112.503 23.808 111.809 24 111.063 24C110.615 24 110.113 23.968 109.559 23.904C109.025 23.8187 108.513 23.6373 108.023 23.36C107.553 23.0613 107.159 22.6133 106.839 22.016C106.519 21.4187 106.359 20.5973 106.359 19.552V5.152C106.359 4.59733 106.54 4.13867 106.903 3.776C107.287 3.392 107.756 3.2 108.311 3.2ZM118.488 21.344C118.275 21.0453 118.179 20.6613 118.2 20.192C118.221 19.7227 118.499 19.3173 119.032 18.976C119.373 18.7627 119.736 18.6773 120.12 18.72C120.504 18.7413 120.877 18.9333 121.24 19.296C121.859 19.9147 122.509 20.3947 123.192 20.736C123.875 21.0773 124.728 21.248 125.752 21.248C126.072 21.2267 126.424 21.184 126.808 21.12C127.192 21.0347 127.523 20.864 127.8 20.608C128.099 20.3307 128.248 19.9147 128.248 19.36C128.248 18.8907 128.088 18.5173 127.768 18.24C127.448 17.9627 127.021 17.728 126.488 17.536C125.976 17.344 125.4 17.1627 124.76 16.992C124.099 16.8 123.416 16.5867 122.712 16.352C122.029 16.1173 121.4 15.8187 120.824 15.456C120.248 15.072 119.779 14.5707 119.416 13.952C119.053 13.3333 118.872 12.5547 118.872 11.616C118.872 10.5493 119.171 9.64267 119.768 8.896C120.365 8.14933 121.133 7.57333 122.072 7.168C123.032 6.76267 124.035 6.56 125.08 6.56C125.741 6.56 126.435 6.64533 127.16 6.816C127.885 6.96533 128.579 7.22133 129.24 7.584C129.901 7.92533 130.456 8.384 130.904 8.96C131.139 9.28 131.277 9.664 131.32 10.112C131.363 10.56 131.16 10.9653 130.712 11.328C130.392 11.584 130.019 11.7013 129.592 11.68C129.165 11.6373 128.813 11.488 128.536 11.232C128.173 10.7627 127.683 10.3893 127.064 10.112C126.467 9.83467 125.773 9.696 124.984 9.696C124.664 9.696 124.312 9.73867 123.928 9.824C123.565 9.888 123.245 10.048 122.968 10.304C122.691 10.5387 122.552 10.9227 122.552 11.456C122.552 11.9467 122.712 12.3413 123.032 12.64C123.352 12.9173 123.779 13.152 124.312 13.344C124.867 13.5147 125.453 13.6853 126.072 13.856C126.712 14.0267 127.363 14.2293 128.024 14.464C128.685 14.6987 129.293 15.008 129.848 15.392C130.403 15.776 130.851 16.2773 131.192 16.896C131.533 17.4933 131.704 18.2613 131.704 19.2C131.704 20.288 131.384 21.216 130.744 21.984C130.104 22.752 129.304 23.3387 128.344 23.744C127.384 24.128 126.403 24.32 125.4 24.32C124.141 24.32 122.883 24.1067 121.624 23.68C120.365 23.232 119.32 22.4533 118.488 21.344ZM166.948 12.8C166.948 14.4 166.681 15.8933 166.148 17.28C165.614 18.6667 164.857 19.8933 163.876 20.96C162.916 22.0053 161.764 22.8267 160.42 23.424C159.097 24.0213 157.646 24.32 156.068 24.32C154.489 24.32 153.038 24.0213 151.716 23.424C150.393 22.8267 149.241 22.0053 148.26 20.96C147.3 19.8933 146.553 18.6667 146.02 17.28C145.486 15.8933 145.22 14.4 145.22 12.8C145.22 11.2 145.486 9.70667 146.02 8.32C146.553 6.93333 147.3 5.71733 148.26 4.672C149.241 3.60533 150.393 2.77333 151.716 2.176C153.038 1.57867 154.489 1.28 156.068 1.28C157.646 1.28 159.097 1.57867 160.42 2.176C161.764 2.77333 162.916 3.60533 163.876 4.672C164.857 5.71733 165.614 6.93333 166.148 8.32C166.681 9.70667 166.948 11.2 166.948 12.8ZM162.788 12.8C162.788 11.3707 162.5 10.08 161.924 8.928C161.348 7.75467 160.558 6.82667 159.556 6.144C158.553 5.46133 157.39 5.12 156.068 5.12C154.745 5.12 153.582 5.46133 152.58 6.144C151.577 6.82667 150.788 7.744 150.212 8.896C149.657 10.048 149.38 11.3493 149.38 12.8C149.38 14.2293 149.657 15.5307 150.212 16.704C150.788 17.856 151.577 18.7733 152.58 19.456C153.582 20.1387 154.745 20.48 156.068 20.48C157.39 20.48 158.553 20.1387 159.556 19.456C160.558 18.7733 161.348 17.856 161.924 16.704C162.5 15.5307 162.788 14.2293 162.788 12.8ZM180.168 0.32C180.637 0.32 181.096 0.384 181.544 0.511999C181.992 0.639999 182.365 0.853332 182.664 1.152C182.962 1.42933 183.112 1.80267 183.112 2.272C183.112 2.80533 182.952 3.232 182.632 3.552C182.333 3.85067 181.981 4 181.576 4C181.384 4 181.096 3.95733 180.712 3.872C180.328 3.76533 179.954 3.712 179.592 3.712C179.058 3.712 178.642 3.82933 178.344 4.064C178.066 4.29867 177.874 4.576 177.768 4.896C177.661 5.19467 177.608 5.46133 177.608 5.696V22.048C177.608 22.6027 177.426 23.072 177.064 23.456C176.701 23.8187 176.242 24 175.688 24C175.133 24 174.674 23.8187 174.312 23.456C173.949 23.072 173.768 22.6027 173.768 22.048V5.728C173.768 4.21333 174.301 2.93333 175.368 1.888C176.434 0.842666 178.034 0.32 180.168 0.32ZM180.52 7.2C181.032 7.2 181.458 7.37067 181.8 7.712C182.141 8.032 182.312 8.448 182.312 8.96C182.312 9.472 182.141 9.89867 181.8 10.24C181.458 10.56 181.032 10.72 180.52 10.72H172.04C171.528 10.72 171.101 10.56 170.76 10.24C170.418 9.89867 170.248 9.472 170.248 8.96C170.248 8.448 170.418 8.032 170.76 7.712C171.101 7.37067 171.528 7.2 172.04 7.2H180.52ZM209.11 20.256C209.665 20.256 210.124 20.4373 210.486 20.8C210.87 21.1413 211.062 21.5893 211.062 22.144C211.062 22.6773 210.87 23.1253 210.486 23.488C210.124 23.8293 209.665 24 209.11 24H198.71C198.156 24 197.686 23.8187 197.302 23.456C196.94 23.072 196.758 22.6027 196.758 22.048V3.552C196.758 2.99733 196.95 2.53867 197.334 2.176C197.718 1.792 198.209 1.6 198.806 1.6C199.318 1.6 199.766 1.792 200.15 2.176C200.556 2.53867 200.758 2.99733 200.758 3.552V20.8L200.054 20.256H209.11ZM223.538 24.32C221.724 24.32 220.146 23.9467 218.802 23.2C217.479 22.432 216.455 21.3973 215.73 20.096C215.026 18.7947 214.674 17.3227 214.674 15.68C214.674 13.76 215.058 12.128 215.826 10.784C216.615 9.41867 217.639 8.37333 218.898 7.648C220.156 6.92267 221.49 6.56 222.898 6.56C223.986 6.56 225.01 6.784 225.97 7.232C226.951 7.68 227.815 8.29867 228.562 9.088C229.308 9.856 229.895 10.752 230.322 11.776C230.77 12.8 230.994 13.888 230.994 15.04C230.972 15.552 230.77 15.968 230.386 16.288C230.002 16.608 229.554 16.768 229.042 16.768H216.818L215.858 13.568H227.602L226.898 14.208V13.344C226.855 12.7253 226.631 12.1707 226.226 11.68C225.842 11.1893 225.351 10.8053 224.754 10.528C224.178 10.2293 223.559 10.08 222.898 10.08C222.258 10.08 221.66 10.1653 221.106 10.336C220.551 10.5067 220.071 10.7947 219.666 11.2C219.26 11.6053 218.94 12.1493 218.706 12.832C218.471 13.5147 218.354 14.3787 218.354 15.424C218.354 16.576 218.588 17.5573 219.058 18.368C219.548 19.1573 220.167 19.7653 220.914 20.192C221.682 20.5973 222.492 20.8 223.346 20.8C224.135 20.8 224.764 20.736 225.234 20.608C225.703 20.48 226.076 20.3307 226.354 20.16C226.652 19.968 226.919 19.808 227.154 19.68C227.538 19.488 227.9 19.392 228.242 19.392C228.711 19.392 229.095 19.552 229.394 19.872C229.714 20.192 229.874 20.5653 229.874 20.992C229.874 21.568 229.575 22.0907 228.978 22.56C228.423 23.0293 227.644 23.4453 226.642 23.808C225.639 24.1493 224.604 24.32 223.538 24.32ZM249.556 6.56C250.111 6.56 250.57 6.74133 250.932 7.104C251.295 7.46667 251.476 7.936 251.476 8.512V22.048C251.476 22.6027 251.295 23.072 250.932 23.456C250.57 23.8187 250.111 24 249.556 24C249.002 24 248.543 23.8187 248.18 23.456C247.818 23.072 247.636 22.6027 247.636 22.048V20.48L248.34 20.768C248.34 21.0453 248.191 21.3867 247.892 21.792C247.594 22.176 247.188 22.56 246.676 22.944C246.164 23.328 245.556 23.6587 244.852 23.936C244.17 24.192 243.423 24.32 242.612 24.32C241.14 24.32 239.807 23.9467 238.612 23.2C237.418 22.432 236.468 21.3867 235.764 20.064C235.082 18.72 234.74 17.184 234.74 15.456C234.74 13.7067 235.082 12.1707 235.764 10.848C236.468 9.504 237.407 8.45867 238.58 7.712C239.754 6.944 241.055 6.56 242.484 6.56C243.402 6.56 244.244 6.69867 245.012 6.976C245.78 7.25333 246.442 7.60533 246.996 8.032C247.572 8.45867 248.01 8.896 248.308 9.344C248.628 9.77067 248.788 10.1333 248.788 10.432L247.636 10.848V8.512C247.636 7.95733 247.818 7.49867 248.18 7.136C248.543 6.752 249.002 6.56 249.556 6.56ZM243.092 20.8C244.031 20.8 244.852 20.5653 245.556 20.096C246.26 19.6267 246.804 18.9867 247.188 18.176C247.594 17.3653 247.796 16.4587 247.796 15.456C247.796 14.432 247.594 13.5147 247.188 12.704C246.804 11.8933 246.26 11.2533 245.556 10.784C244.852 10.3147 244.031 10.08 243.092 10.08C242.175 10.08 241.364 10.3147 240.66 10.784C239.956 11.2533 239.402 11.8933 238.996 12.704C238.612 13.5147 238.42 14.432 238.42 15.456C238.42 16.4587 238.612 17.3653 238.996 18.176C239.402 18.9867 239.956 19.6267 240.66 20.096C241.364 20.5653 242.175 20.8 243.092 20.8ZM258.621 24C258.066 24 257.607 23.8187 257.245 23.456C256.882 23.072 256.701 22.6027 256.701 22.048V8.832C256.701 8.27733 256.882 7.81867 257.245 7.456C257.607 7.072 258.066 6.88 258.621 6.88C259.175 6.88 259.634 7.072 259.997 7.456C260.359 7.81867 260.541 8.27733 260.541 8.832V11.84L260.317 9.696C260.551 9.184 260.85 8.736 261.213 8.352C261.597 7.94667 262.023 7.616 262.493 7.36C262.962 7.08267 263.463 6.88 263.997 6.752C264.53 6.624 265.063 6.56 265.597 6.56C266.237 6.56 266.77 6.74133 267.197 7.104C267.645 7.46667 267.869 7.89333 267.869 8.384C267.869 9.088 267.687 9.6 267.325 9.92C266.962 10.2187 266.567 10.368 266.141 10.368C265.735 10.368 265.362 10.2933 265.021 10.144C264.701 9.99467 264.327 9.92 263.901 9.92C263.517 9.92 263.122 10.016 262.717 10.208C262.333 10.3787 261.97 10.656 261.629 11.04C261.309 11.424 261.042 11.904 260.829 12.48C260.637 13.0347 260.541 13.696 260.541 14.464V22.048C260.541 22.6027 260.359 23.072 259.997 23.456C259.634 23.8187 259.175 24 258.621 24ZM280.795 6.56C282.373 6.56 283.568 6.89067 284.379 7.552C285.211 8.21333 285.776 9.09867 286.075 10.208C286.395 11.296 286.555 12.512 286.555 13.856V22.048C286.555 22.6027 286.373 23.072 286.01 23.456C285.648 23.8187 285.189 24 284.635 24C284.08 24 283.621 23.8187 283.259 23.456C282.896 23.072 282.715 22.6027 282.715 22.048V13.856C282.715 13.152 282.619 12.5227 282.427 11.968C282.256 11.392 281.936 10.9333 281.467 10.592C280.997 10.2507 280.325 10.08 279.451 10.08C278.597 10.08 277.872 10.2507 277.275 10.592C276.699 10.9333 276.251 11.392 275.931 11.968C275.632 12.5227 275.483 13.152 275.483 13.856V22.048C275.483 22.6027 275.301 23.072 274.939 23.456C274.576 23.8187 274.117 24 273.562 24C273.008 24 272.549 23.8187 272.187 23.456C271.824 23.072 271.643 22.6027 271.643 22.048V8.832C271.643 8.27733 271.824 7.81867 272.187 7.456C272.549 7.072 273.008 6.88 273.562 6.88C274.117 6.88 274.576 7.072 274.939 7.456C275.301 7.81867 275.483 8.27733 275.483 8.832V10.208L275.003 10.112C275.195 9.74933 275.472 9.36533 275.835 8.96C276.197 8.53333 276.624 8.13867 277.115 7.776C277.605 7.41333 278.16 7.12533 278.779 6.912C279.397 6.67733 280.069 6.56 280.795 6.56ZM295.388 22.048C295.388 22.6027 295.206 23.072 294.844 23.456C294.481 23.8187 294.022 24 293.468 24C292.913 24 292.454 23.8187 292.092 23.456C291.729 23.072 291.548 22.6027 291.548 22.048V8.832C291.548 8.27733 291.729 7.81867 292.092 7.456C292.454 7.072 292.913 6.88 293.468 6.88C294.022 6.88 294.481 7.072 294.844 7.456C295.206 7.81867 295.388 8.27733 295.388 8.832V22.048ZM293.436 4.8C292.71 4.8 292.198 4.68267 291.9 4.448C291.601 4.21333 291.452 3.79733 291.452 3.2V2.592C291.452 1.97333 291.612 1.55733 291.932 1.344C292.273 1.10933 292.785 0.991999 293.468 0.991999C294.214 0.991999 294.737 1.10933 295.036 1.344C295.334 1.57867 295.484 1.99467 295.484 2.592V3.2C295.484 3.81867 295.324 4.24533 295.004 4.48C294.684 4.69333 294.161 4.8 293.436 4.8ZM309.553 6.56C311.131 6.56 312.326 6.89067 313.137 7.552C313.969 8.21333 314.534 9.09867 314.833 10.208C315.153 11.296 315.313 12.512 315.313 13.856V22.048C315.313 22.6027 315.131 23.072 314.769 23.456C314.406 23.8187 313.947 24 313.393 24C312.838 24 312.379 23.8187 312.017 23.456C311.654 23.072 311.473 22.6027 311.473 22.048V13.856C311.473 13.152 311.377 12.5227 311.185 11.968C311.014 11.392 310.694 10.9333 310.225 10.592C309.755 10.2507 309.083 10.08 308.209 10.08C307.355 10.08 306.63 10.2507 306.033 10.592C305.457 10.9333 305.009 11.392 304.689 11.968C304.39 12.5227 304.241 13.152 304.241 13.856V22.048C304.241 22.6027 304.059 23.072 303.697 23.456C303.334 23.8187 302.875 24 302.321 24C301.766 24 301.307 23.8187 300.945 23.456C300.582 23.072 300.401 22.6027 300.401 22.048V8.832C300.401 8.27733 300.582 7.81867 300.945 7.456C301.307 7.072 301.766 6.88 302.321 6.88C302.875 6.88 303.334 7.072 303.697 7.456C304.059 7.81867 304.241 8.27733 304.241 8.832V10.208L303.761 10.112C303.953 9.74933 304.23 9.36533 304.593 8.96C304.955 8.53333 305.382 8.13867 305.873 7.776C306.363 7.41333 306.918 7.12533 307.537 6.912C308.155 6.67733 308.827 6.56 309.553 6.56ZM327.634 6.56C328.53 6.56 329.351 6.69867 330.098 6.976C330.845 7.25333 331.485 7.60533 332.018 8.032C332.573 8.45867 332.999 8.896 333.298 9.344C333.618 9.77067 333.778 10.1333 333.778 10.432L332.946 10.848V8.512C332.946 7.95733 333.127 7.49867 333.49 7.136C333.853 6.752 334.311 6.56 334.866 6.56C335.421 6.56 335.879 6.74133 336.242 7.104C336.605 7.46667 336.786 7.936 336.786 8.512V22.752C336.786 24.608 336.381 26.0907 335.57 27.2C334.781 28.3307 333.735 29.1413 332.434 29.632C331.133 30.144 329.735 30.4 328.242 30.4C327.815 30.4 327.261 30.3467 326.578 30.24C325.895 30.1333 325.245 30.0053 324.626 29.856C324.007 29.7067 323.538 29.568 323.218 29.44C322.578 29.1627 322.13 28.8107 321.874 28.384C321.639 27.9787 321.597 27.5413 321.746 27.072C321.938 26.4533 322.247 26.0267 322.674 25.792C323.101 25.5787 323.549 25.5573 324.018 25.728C324.231 25.792 324.583 25.92 325.074 26.112C325.565 26.304 326.098 26.4747 326.674 26.624C327.271 26.7947 327.794 26.88 328.242 26.88C329.842 26.88 331.026 26.56 331.794 25.92C332.562 25.28 332.946 24.3947 332.946 23.264V20.48L333.33 20.768C333.33 21.0453 333.181 21.3867 332.882 21.792C332.605 22.176 332.21 22.56 331.698 22.944C331.207 23.328 330.621 23.6587 329.938 23.936C329.255 24.192 328.53 24.32 327.762 24.32C326.247 24.32 324.882 23.9467 323.666 23.2C322.45 22.432 321.49 21.3867 320.786 20.064C320.082 18.72 319.73 17.184 319.73 15.456C319.73 13.7067 320.082 12.1707 320.786 10.848C321.49 9.504 322.439 8.45867 323.634 7.712C324.829 6.944 326.162 6.56 327.634 6.56ZM328.242 10.08C327.282 10.08 326.439 10.3147 325.714 10.784C324.989 11.2533 324.423 11.8933 324.018 12.704C323.613 13.5147 323.41 14.432 323.41 15.456C323.41 16.4587 323.613 17.3653 324.018 18.176C324.423 18.9867 324.989 19.6267 325.714 20.096C326.439 20.5653 327.282 20.8 328.242 20.8C329.223 20.8 330.077 20.5653 330.802 20.096C331.527 19.6267 332.093 18.9867 332.498 18.176C332.903 17.3653 333.106 16.4587 333.106 15.456C333.106 14.432 332.903 13.5147 332.498 12.704C332.093 11.8933 331.527 11.2533 330.802 10.784C330.077 10.3147 329.223 10.08 328.242 10.08ZM2.416 64C1.81867 64 1.328 63.8187 0.944 63.456C0.581333 63.072 0.4 62.6027 0.4 62.048V43.552C0.4 42.9973 0.581333 42.5387 0.944 42.176C1.328 41.792 1.79733 41.6 2.352 41.6H12.752C13.3067 41.6 13.7653 41.7813 14.128 42.144C14.512 42.4853 14.704 42.9333 14.704 43.488C14.704 43.9573 14.512 44.3733 14.128 44.736C13.7653 45.0987 13.3067 45.28 12.752 45.28H4.112L4.4 44.896V51.328L4.176 50.912H11.312C11.8667 50.912 12.3253 51.0933 12.688 51.456C13.072 51.7973 13.264 52.2453 13.264 52.8C13.264 53.2693 13.072 53.6853 12.688 54.048C12.3253 54.4107 11.8667 54.592 11.312 54.592H4.112L4.4 54.304V62.048C4.4 62.6027 4.19733 63.072 3.792 63.456C3.408 63.8187 2.94933 64 2.416 64ZM20.7542 64C20.1995 64 19.7408 63.8187 19.3782 63.456C19.0155 63.072 18.8342 62.6027 18.8342 62.048V48.832C18.8342 48.2773 19.0155 47.8187 19.3782 47.456C19.7408 47.072 20.1995 46.88 20.7542 46.88C21.3088 46.88 21.7675 47.072 22.1302 47.456C22.4928 47.8187 22.6742 48.2773 22.6742 48.832V51.84L22.4502 49.696C22.6848 49.184 22.9835 48.736 23.3462 48.352C23.7302 47.9467 24.1568 47.616 24.6262 47.36C25.0955 47.0827 25.5968 46.88 26.1302 46.752C26.6635 46.624 27.1968 46.56 27.7302 46.56C28.3702 46.56 28.9035 46.7413 29.3302 47.104C29.7782 47.4667 30.0022 47.8933 30.0022 48.384C30.0022 49.088 29.8208 49.6 29.4582 49.92C29.0955 50.2187 28.7008 50.368 28.2742 50.368C27.8688 50.368 27.4955 50.2933 27.1542 50.144C26.8342 49.9947 26.4608 49.92 26.0342 49.92C25.6502 49.92 25.2555 50.016 24.8502 50.208C24.4662 50.3787 24.1035 50.656 23.7622 51.04C23.4422 51.424 23.1755 51.904 22.9622 52.48C22.7702 53.0347 22.6742 53.696 22.6742 54.464V62.048C22.6742 62.6027 22.4928 63.072 22.1302 63.456C21.7675 63.8187 21.3088 64 20.7542 64ZM49.6651 55.456C49.6651 57.2053 49.2704 58.752 48.4811 60.096C47.7131 61.4187 46.6677 62.4533 45.3451 63.2C44.0437 63.9467 42.5824 64.32 40.9611 64.32C39.3397 64.32 37.8677 63.9467 36.5451 63.2C35.2437 62.4533 34.1984 61.4187 33.4091 60.096C32.6411 58.752 32.2571 57.2053 32.2571 55.456C32.2571 53.7067 32.6411 52.1707 33.4091 50.848C34.1984 49.504 35.2437 48.4587 36.5451 47.712C37.8677 46.944 39.3397 46.56 40.9611 46.56C42.5824 46.56 44.0437 46.944 45.3451 47.712C46.6677 48.4587 47.7131 49.504 48.4811 50.848C49.2704 52.1707 49.6651 53.7067 49.6651 55.456ZM45.8251 55.456C45.8251 54.368 45.6011 53.4293 45.1531 52.64C44.7264 51.8293 44.1397 51.2 43.3931 50.752C42.6677 50.304 41.8571 50.08 40.9611 50.08C40.0651 50.08 39.2437 50.304 38.4971 50.752C37.7717 51.2 37.1851 51.8293 36.7371 52.64C36.3104 53.4293 36.0971 54.368 36.0971 55.456C36.0971 56.5227 36.3104 57.4613 36.7371 58.272C37.1851 59.0613 37.7717 59.68 38.4971 60.128C39.2437 60.576 40.0651 60.8 40.9611 60.8C41.8571 60.8 42.6677 60.576 43.3931 60.128C44.1397 59.68 44.7264 59.0613 45.1531 58.272C45.6011 57.4613 45.8251 56.5227 45.8251 55.456ZM63.0845 46.56C64.7912 46.56 66.0498 46.976 66.8605 47.808C67.6712 48.6187 68.2045 49.6747 68.4605 50.976L67.9165 50.688L68.1725 50.176C68.4285 49.6853 68.8232 49.1627 69.3565 48.608C69.8898 48.032 70.5298 47.552 71.2765 47.168C72.0445 46.7627 72.8978 46.56 73.8365 46.56C75.3725 46.56 76.5352 46.8907 77.3245 47.552C78.1352 48.2133 78.6898 49.0987 78.9885 50.208C79.2872 51.296 79.4365 52.512 79.4365 53.856V62.048C79.4365 62.6027 79.2552 63.072 78.8925 63.456C78.5298 63.8187 78.0712 64 77.5165 64C76.9618 64 76.5032 63.8187 76.1405 63.456C75.7778 63.072 75.5965 62.6027 75.5965 62.048V53.856C75.5965 53.152 75.5112 52.5227 75.3405 51.968C75.1698 51.392 74.8605 50.9333 74.4125 50.592C73.9645 50.2507 73.3245 50.08 72.4925 50.08C71.6818 50.08 70.9885 50.2507 70.4125 50.592C69.8365 50.9333 69.3992 51.392 69.1005 51.968C68.8232 52.5227 68.6845 53.152 68.6845 53.856V62.048C68.6845 62.6027 68.5032 63.072 68.1405 63.456C67.7778 63.8187 67.3192 64 66.7645 64C66.2098 64 65.7512 63.8187 65.3885 63.456C65.0258 63.072 64.8445 62.6027 64.8445 62.048V53.856C64.8445 53.152 64.7592 52.5227 64.5885 51.968C64.4178 51.392 64.1085 50.9333 63.6605 50.592C63.2125 50.2507 62.5725 50.08 61.7405 50.08C60.9298 50.08 60.2365 50.2507 59.6605 50.592C59.0845 50.9333 58.6472 51.392 58.3485 51.968C58.0712 52.5227 57.9325 53.152 57.9325 53.856V62.048C57.9325 62.6027 57.7512 63.072 57.3885 63.456C57.0258 63.8187 56.5672 64 56.0125 64C55.4578 64 54.9992 63.8187 54.6365 63.456C54.2738 63.072 54.0925 62.6027 54.0925 62.048V48.832C54.0925 48.2773 54.2738 47.8187 54.6365 47.456C54.9992 47.072 55.4578 46.88 56.0125 46.88C56.5672 46.88 57.0258 47.072 57.3885 47.456C57.7512 47.8187 57.9325 48.2773 57.9325 48.832V50.208L57.4525 50.112C57.6445 49.7493 57.9112 49.3653 58.2525 48.96C58.5938 48.5333 59.0098 48.1387 59.5005 47.776C59.9912 47.4133 60.5352 47.1253 61.1325 46.912C61.7298 46.6773 62.3805 46.56 63.0845 46.56Z" fill="#FFBA00"/>
<path d="M96.9666 41.6H107.687C108.241 41.6 108.7 41.7813 109.063 42.144C109.447 42.4853 109.639 42.9333 109.639 43.488C109.639 44.0213 109.447 44.4587 109.063 44.8C108.7 45.12 108.241 45.28 107.687 45.28H98.7266L99.0146 44.736V50.976L98.7586 50.72H106.247C106.801 50.72 107.26 50.9013 107.623 51.264C108.007 51.6053 108.199 52.0533 108.199 52.608C108.199 53.1413 108.007 53.5787 107.623 53.92C107.26 54.24 106.801 54.4 106.247 54.4H98.8546L99.0146 54.144V60.608L98.7586 60.32H107.687C108.241 60.32 108.7 60.512 109.063 60.896C109.447 61.2587 109.639 61.6853 109.639 62.176C109.639 62.7093 109.447 63.1467 109.063 63.488C108.7 63.8293 108.241 64 107.687 64H96.9666C96.4119 64 95.9426 63.8187 95.5586 63.456C95.1959 63.072 95.0146 62.6027 95.0146 62.048V43.552C95.0146 42.9973 95.1959 42.5387 95.5586 42.176C95.9426 41.792 96.4119 41.6 96.9666 41.6ZM127.934 40.32C128.488 40.32 128.947 40.5013 129.31 40.864C129.672 41.2267 129.854 41.696 129.854 42.272V62.048C129.854 62.6027 129.672 63.072 129.31 63.456C128.947 63.8187 128.488 64 127.934 64C127.379 64 126.92 63.8187 126.558 63.456C126.195 63.072 126.014 62.6027 126.014 62.048V60.48L126.718 60.768C126.718 61.0453 126.568 61.3867 126.27 61.792C125.971 62.176 125.566 62.56 125.054 62.944C124.542 63.328 123.934 63.6587 123.23 63.936C122.547 64.192 121.8 64.32 120.99 64.32C119.518 64.32 118.184 63.9467 116.99 63.2C115.795 62.432 114.846 61.3867 114.142 60.064C113.459 58.72 113.118 57.184 113.118 55.456C113.118 53.7067 113.459 52.1707 114.142 50.848C114.846 49.504 115.784 48.4587 116.958 47.712C118.131 46.944 119.432 46.56 120.862 46.56C121.779 46.56 122.622 46.6987 123.39 46.976C124.158 47.2533 124.819 47.6053 125.374 48.032C125.95 48.4587 126.387 48.896 126.686 49.344C127.006 49.7707 127.166 50.1333 127.166 50.432L126.014 50.848V42.272C126.014 41.7173 126.195 41.2587 126.558 40.896C126.92 40.512 127.379 40.32 127.934 40.32ZM121.47 60.8C122.408 60.8 123.23 60.5653 123.934 60.096C124.638 59.6267 125.182 58.9867 125.566 58.176C125.971 57.3653 126.174 56.4587 126.174 55.456C126.174 54.432 125.971 53.5147 125.566 52.704C125.182 51.8933 124.638 51.2533 123.934 50.784C123.23 50.3147 122.408 50.08 121.47 50.08C120.552 50.08 119.742 50.3147 119.038 50.784C118.334 51.2533 117.779 51.8933 117.374 52.704C116.99 53.5147 116.798 54.432 116.798 55.456C116.798 56.4587 116.99 57.3653 117.374 58.176C117.779 58.9867 118.334 59.6267 119.038 60.096C119.742 60.5653 120.552 60.8 121.47 60.8ZM148.282 46.88C148.837 46.88 149.295 47.072 149.658 47.456C150.021 47.8187 150.202 48.2773 150.202 48.832V56.96C150.202 59.2213 149.573 61.0133 148.314 62.336C147.055 63.6587 145.242 64.32 142.874 64.32C140.506 64.32 138.693 63.6587 137.434 62.336C136.197 61.0133 135.578 59.2213 135.578 56.96V48.832C135.578 48.2773 135.759 47.8187 136.122 47.456C136.485 47.072 136.943 46.88 137.498 46.88C138.053 46.88 138.511 47.072 138.874 47.456C139.237 47.8187 139.418 48.2773 139.418 48.832V56.96C139.418 58.2613 139.706 59.232 140.282 59.872C140.858 60.4907 141.722 60.8 142.874 60.8C144.047 60.8 144.922 60.4907 145.498 59.872C146.074 59.232 146.362 58.2613 146.362 56.96V48.832C146.362 48.2773 146.543 47.8187 146.906 47.456C147.269 47.072 147.727 46.88 148.282 46.88ZM162.217 46.56C163.113 46.56 163.935 46.6987 164.681 46.976C165.428 47.2533 166.068 47.6053 166.601 48.032C167.156 48.4587 167.583 48.896 167.881 49.344C168.201 49.7707 168.361 50.1333 168.361 50.432L167.529 50.848V48.512C167.529 47.9573 167.711 47.4987 168.073 47.136C168.436 46.752 168.895 46.56 169.449 46.56C170.004 46.56 170.463 46.7413 170.825 47.104C171.188 47.4667 171.369 47.936 171.369 48.512V62.752C171.369 64.608 170.964 66.0907 170.153 67.2C169.364 68.3307 168.319 69.1413 167.017 69.632C165.716 70.144 164.319 70.4 162.825 70.4C162.399 70.4 161.844 70.3467 161.161 70.24C160.479 70.1333 159.828 70.0053 159.209 69.856C158.591 69.7067 158.121 69.568 157.801 69.44C157.161 69.1627 156.713 68.8107 156.457 68.384C156.223 67.9787 156.18 67.5413 156.329 67.072C156.521 66.4533 156.831 66.0267 157.257 65.792C157.684 65.5787 158.132 65.5573 158.601 65.728C158.815 65.792 159.167 65.92 159.657 66.112C160.148 66.304 160.681 66.4747 161.257 66.624C161.855 66.7947 162.377 66.88 162.825 66.88C164.425 66.88 165.609 66.56 166.377 65.92C167.145 65.28 167.529 64.3947 167.529 63.264V60.48L167.913 60.768C167.913 61.0453 167.764 61.3867 167.465 61.792C167.188 62.176 166.793 62.56 166.281 62.944C165.791 63.328 165.204 63.6587 164.521 63.936C163.839 64.192 163.113 64.32 162.345 64.32C160.831 64.32 159.465 63.9467 158.249 63.2C157.033 62.432 156.073 61.3867 155.369 60.064C154.665 58.72 154.313 57.184 154.313 55.456C154.313 53.7067 154.665 52.1707 155.369 50.848C156.073 49.504 157.023 48.4587 158.217 47.712C159.412 46.944 160.745 46.56 162.217 46.56ZM162.825 50.08C161.865 50.08 161.023 50.3147 160.297 50.784C159.572 51.2533 159.007 51.8933 158.601 52.704C158.196 53.5147 157.993 54.432 157.993 55.456C157.993 56.4587 158.196 57.3653 158.601 58.176C159.007 58.9867 159.572 59.6267 160.297 60.096C161.023 60.5653 161.865 60.8 162.825 60.8C163.807 60.8 164.66 60.5653 165.385 60.096C166.111 59.6267 166.676 58.9867 167.081 58.176C167.487 57.3653 167.689 56.4587 167.689 55.456C167.689 54.432 167.487 53.5147 167.081 52.704C166.676 51.8933 166.111 51.2533 165.385 50.784C164.66 50.3147 163.807 50.08 162.825 50.08ZM178.506 64C177.952 64 177.493 63.8187 177.13 63.456C176.768 63.072 176.586 62.6027 176.586 62.048V48.832C176.586 48.2773 176.768 47.8187 177.13 47.456C177.493 47.072 177.952 46.88 178.506 46.88C179.061 46.88 179.52 47.072 179.882 47.456C180.245 47.8187 180.426 48.2773 180.426 48.832V51.84L180.202 49.696C180.437 49.184 180.736 48.736 181.098 48.352C181.482 47.9467 181.909 47.616 182.378 47.36C182.848 47.0827 183.349 46.88 183.882 46.752C184.416 46.624 184.949 46.56 185.482 46.56C186.122 46.56 186.656 46.7413 187.082 47.104C187.53 47.4667 187.754 47.8933 187.754 48.384C187.754 49.088 187.573 49.6 187.21 49.92C186.848 50.2187 186.453 50.368 186.026 50.368C185.621 50.368 185.248 50.2933 184.906 50.144C184.586 49.9947 184.213 49.92 183.786 49.92C183.402 49.92 183.008 50.016 182.602 50.208C182.218 50.3787 181.856 50.656 181.514 51.04C181.194 51.424 180.928 51.904 180.714 52.48C180.522 53.0347 180.426 53.696 180.426 54.464V62.048C180.426 62.6027 180.245 63.072 179.882 63.456C179.52 63.8187 179.061 64 178.506 64ZM205.169 46.56C205.724 46.56 206.182 46.7413 206.545 47.104C206.908 47.4667 207.089 47.936 207.089 48.512V62.048C207.089 62.6027 206.908 63.072 206.545 63.456C206.182 63.8187 205.724 64 205.169 64C204.614 64 204.156 63.8187 203.793 63.456C203.43 63.072 203.249 62.6027 203.249 62.048V60.48L203.953 60.768C203.953 61.0453 203.804 61.3867 203.505 61.792C203.206 62.176 202.801 62.56 202.289 62.944C201.777 63.328 201.169 63.6587 200.465 63.936C199.782 64.192 199.036 64.32 198.225 64.32C196.753 64.32 195.42 63.9467 194.225 63.2C193.03 62.432 192.081 61.3867 191.377 60.064C190.694 58.72 190.353 57.184 190.353 55.456C190.353 53.7067 190.694 52.1707 191.377 50.848C192.081 49.504 193.02 48.4587 194.193 47.712C195.366 46.944 196.668 46.56 198.097 46.56C199.014 46.56 199.857 46.6987 200.625 46.976C201.393 47.2533 202.054 47.6053 202.609 48.032C203.185 48.4587 203.622 48.896 203.921 49.344C204.241 49.7707 204.401 50.1333 204.401 50.432L203.249 50.848V48.512C203.249 47.9573 203.43 47.4987 203.793 47.136C204.156 46.752 204.614 46.56 205.169 46.56ZM198.705 60.8C199.644 60.8 200.465 60.5653 201.169 60.096C201.873 59.6267 202.417 58.9867 202.801 58.176C203.206 57.3653 203.409 56.4587 203.409 55.456C203.409 54.432 203.206 53.5147 202.801 52.704C202.417 51.8933 201.873 51.2533 201.169 50.784C200.465 50.3147 199.644 50.08 198.705 50.08C197.788 50.08 196.977 50.3147 196.273 50.784C195.569 51.2533 195.014 51.8933 194.609 52.704C194.225 53.5147 194.033 54.432 194.033 55.456C194.033 56.4587 194.225 57.3653 194.609 58.176C195.014 58.9867 195.569 59.6267 196.273 60.096C196.977 60.5653 197.788 60.8 198.705 60.8ZM221.305 46.56C223.012 46.56 224.271 46.976 225.081 47.808C225.892 48.6187 226.425 49.6747 226.681 50.976L226.137 50.688L226.393 50.176C226.649 49.6853 227.044 49.1627 227.577 48.608C228.111 48.032 228.751 47.552 229.497 47.168C230.265 46.7627 231.119 46.56 232.057 46.56C233.593 46.56 234.756 46.8907 235.545 47.552C236.356 48.2133 236.911 49.0987 237.209 50.208C237.508 51.296 237.657 52.512 237.657 53.856V62.048C237.657 62.6027 237.476 63.072 237.113 63.456C236.751 63.8187 236.292 64 235.737 64C235.183 64 234.724 63.8187 234.361 63.456C233.999 63.072 233.817 62.6027 233.817 62.048V53.856C233.817 53.152 233.732 52.5227 233.561 51.968C233.391 51.392 233.081 50.9333 232.633 50.592C232.185 50.2507 231.545 50.08 230.713 50.08C229.903 50.08 229.209 50.2507 228.633 50.592C228.057 50.9333 227.62 51.392 227.321 51.968C227.044 52.5227 226.905 53.152 226.905 53.856V62.048C226.905 62.6027 226.724 63.072 226.361 63.456C225.999 63.8187 225.54 64 224.985 64C224.431 64 223.972 63.8187 223.609 63.456C223.247 63.072 223.065 62.6027 223.065 62.048V53.856C223.065 53.152 222.98 52.5227 222.809 51.968C222.639 51.392 222.329 50.9333 221.881 50.592C221.433 50.2507 220.793 50.08 219.961 50.08C219.151 50.08 218.457 50.2507 217.881 50.592C217.305 50.9333 216.868 51.392 216.569 51.968C216.292 52.5227 216.153 53.152 216.153 53.856V62.048C216.153 62.6027 215.972 63.072 215.609 63.456C215.247 63.8187 214.788 64 214.233 64C213.679 64 213.22 63.8187 212.857 63.456C212.495 63.072 212.313 62.6027 212.313 62.048V48.832C212.313 48.2773 212.495 47.8187 212.857 47.456C213.22 47.072 213.679 46.88 214.233 46.88C214.788 46.88 215.247 47.072 215.609 47.456C215.972 47.8187 216.153 48.2773 216.153 48.832V50.208L215.673 50.112C215.865 49.7493 216.132 49.3653 216.473 48.96C216.815 48.5333 217.231 48.1387 217.721 47.776C218.212 47.4133 218.756 47.1253 219.353 46.912C219.951 46.6773 220.601 46.56 221.305 46.56Z" fill="#28A19C"/>
</svg>
